<?xml version="1.0" encoding="utf-8"?>
<!-- Generator: Adobe Illustrator 19.2.1, SVG Export Plug-In . SVG Version: 6.00 Build 0)  -->
<svg version="1.1" id="Layer_1" xmlns="http://www.w3.org/2000/svg" xmlns:xlink="http://www.w3.org/1999/xlink" x="0px" y="0px"
	 viewBox="0 0 100 100" enable-background="new 0 0 100 100" xml:space="preserve">
<g>
	<path fill="#38BAEC" d="M50,100c-0.9,0-1.8-0.5-2.3-1.3L37.2,80.9l-20,5.1c-0.9,0.2-1.9,0-2.5-0.7c-0.7-0.7-0.9-1.6-0.7-2.5l5.1-20
		L1.3,52.3C0.5,51.8,0,50.9,0,50s0.5-1.8,1.3-2.3l17.8-10.5l-5.1-20c-0.2-0.9,0-1.9,0.7-2.5c0.7-0.7,1.6-0.9,2.5-0.7l20,5.1
		L47.7,1.3C48.2,0.5,49.1,0,50,0c0,0,0,0,0,0c0.9,0,1.8,0.5,2.3,1.3l6.2,10.6c0.7,1.3,0.3,2.9-0.9,3.6c-1.3,0.7-2.9,0.3-3.6-0.9
		l-4-6.7l-9.3,15.7c-0.6,1-1.8,1.5-2.9,1.2l-17.6-4.5l4.5,17.6c0.3,1.1-0.2,2.3-1.2,2.9L7.8,50l15.7,9.3c1,0.6,1.5,1.8,1.2,2.9
		l-4.5,17.6l17.6-4.5c1.1-0.3,2.3,0.2,2.9,1.2L50,92.2l9.3-15.7c0.6-1,1.8-1.5,2.9-1.2l17.6,4.5l-4.5-17.6c-0.3-1.1,0.2-2.3,1.2-2.9
		L92.2,50l-6.7-4c-1.3-0.7-1.7-2.4-0.9-3.6c0.7-1.3,2.4-1.7,3.6-0.9l10.6,6.2c0.8,0.5,1.3,1.3,1.3,2.3c0,0.9-0.5,1.8-1.3,2.3
		L80.9,62.8l5.1,20c0.2,0.9,0,1.9-0.7,2.5c-0.7,0.7-1.6,0.9-2.5,0.7l-20-5.1L52.3,98.7C51.8,99.5,50.9,100,50,100z"/>
</g>
<g>
	<path fill="#F8B30E" d="M77.9,41.4c-0.2,0-0.4,0-0.7-0.1c-1.4-0.4-2.3-1.8-1.9-3.2l4.5-17.6L62.2,25c-1.4,0.4-2.8-0.5-3.2-1.9
		s0.5-2.8,1.9-3.2l21.9-5.6c0.9-0.2,1.9,0,2.5,0.7c0.7,0.7,0.9,1.6,0.7,2.5l-5.6,21.9C80.1,40.7,79,41.4,77.9,41.4z"/>
</g>
</svg>
